<svg id="Layer_1" enable-background="new 0 0 512 512" height="512" viewBox="0 0 512 512" width="512" xmlns="http://www.w3.org/2000/svg"><g><path d="m437.423 330.86c-4.268 0-7.726-3.459-7.726-7.726v-130.936c0-76.528-62.425-138.788-139.154-138.788h-86.135c-4.267 0-7.726-3.459-7.726-7.726s3.459-7.726 7.726-7.726h86.135c85.25 0 154.607 69.192 154.607 154.24v130.936c-.001 4.267-3.46 7.726-7.727 7.726z" fill="#54768a"/><g><g><g><g><path d="m275.565 512h-215.684c-10.462 0-18.942-8.481-18.942-18.942 0-10.462 8.481-18.942 18.942-18.942h215.684c10.462 0 18.942 8.481 18.942 18.942 0 10.461-8.481 18.942-18.942 18.942z" fill="#fff0ca"/><path d="m275.565 474.115h-41.207c10.462 0 18.942 8.481 18.942 18.942 0 10.462-8.481 18.942-18.942 18.942h41.207c10.462 0 18.942-8.481 18.942-18.942s-8.481-18.942-18.942-18.942z" fill="#f9e8b7"/><path d="m240.959 143.517h-146.473l-53.143 44.291c-38.562 32.138-51.791 85.501-32.69 131.863l63.492 154.444h191.155l63.492-154.444c19.101-46.362 5.872-99.725-32.69-131.863z" fill="#ff91c1"/><path d="m294.102 187.808-53.143-44.291h-41.207l53.143 44.291c38.562 32.138 51.791 85.501 32.69 131.863l-63.492 154.444h41.207l63.492-154.444c19.101-46.362 5.872-99.725-32.69-131.863z" fill="#ff7db6"/><path d="m218.611 96.383h-101.777c-12.323 0-22.313 9.99-22.313 22.313v24.821h146.403v-24.821c0-12.323-9.99-22.313-22.313-22.313z" fill="#ffdb0d"/><path d="m218.611 96.383h-41.207c12.323 0 22.313 9.99 22.313 22.313v24.821h41.207v-24.821c0-12.323-9.99-22.313-22.313-22.313z" fill="#f5d000"/><path d="m214.08 96.383h-92.715v-74.07c.001-12.323 9.99-22.313 22.313-22.313h48.089c12.323 0 22.313 9.99 22.313 22.313z" fill="#fff0ca"/><path d="m191.767 0h-41.207c12.323 0 22.313 9.99 22.313 22.313v74.07h41.207v-74.07c0-12.323-9.99-22.313-22.313-22.313z" fill="#f9e8b7"/></g><g><ellipse cx="437.939" cy="304.812" fill="#fff0ca" rx="29.099" ry="40.54"/><ellipse cx="436.663" cy="407.04" fill="#ffdb0d" rx="75.337" ry="104.96"/><path d="m436.663 302.08c-7.144 0-14.055 1.386-20.604 3.974 31.592 12.487 54.733 52.971 54.733 100.986s-23.141 88.499-54.733 100.986c6.548 2.588 13.46 3.974 20.604 3.974 41.608 0 75.337-46.992 75.337-104.96s-33.729-104.96-75.337-104.96z" fill="#f5d000"/></g></g><g><path d="m151.265 50.307c0-10.81-8.763-19.573-19.573-19.573-3.795 0-7.326 1.098-10.326 2.967v33.212c3 1.87 6.531 2.967 10.326 2.967 10.81.001 19.573-8.763 19.573-19.573z" fill="#54768a"/></g></g><g><path d="m436.881 480.647c9.943 0 9.96-15.453 0-15.453-9.943 0-9.96 15.453 0 15.453z" fill="#fff"/></g><g><path d="m436.881 442.017c9.943 0 9.96-15.453 0-15.453-9.943.001-9.96 15.453 0 15.453z" fill="#fff"/></g><g><path d="m465.724 459.53c9.943 0 9.96-15.453 0-15.453-9.943 0-9.959 15.453 0 15.453z" fill="#fff"/></g></g></g></svg>